<svg xmlns="http://www.w3.org/2000/svg" width="132.668" height="58.274" viewBox="0 0 132.668 58.274">
  <g id="Group_467" data-name="Group 467" transform="translate(-894 -15)">
    <path id="Union_1" data-name="Union 1" d="M72.44,39.2a12.072,12.072,0,0,1-4.309-3.018,13.607,13.607,0,0,1-2.766-4.735,18.584,18.584,0,0,1-.973-6.2,18.843,18.843,0,0,1,.973-6.227,12.668,12.668,0,0,1,7.075-7.8,14.151,14.151,0,0,1,5.635-1.075,14.348,14.348,0,0,1,5.662,1.075,12.621,12.621,0,0,1,7.1,7.807,18.872,18.872,0,0,1,.973,6.227,18.613,18.613,0,0,1-.973,6.2,13.645,13.645,0,0,1-2.766,4.732A12.014,12.014,0,0,1,83.736,39.2a14.665,14.665,0,0,1-5.662,1.051A14.464,14.464,0,0,1,72.44,39.2Zm-.461-10.6a9.352,9.352,0,0,0,1.049,2.934A5.826,5.826,0,0,0,75,33.605a5.665,5.665,0,0,0,3.073.775,5.5,5.5,0,0,0,5.1-2.853,9.321,9.321,0,0,0,1.049-2.934,17.9,17.9,0,0,0,.3-3.342,18.342,18.342,0,0,0-.308-3.376,9.033,9.033,0,0,0-1.049-2.934,6.055,6.055,0,0,0-2-2.076,5.638,5.638,0,0,0-3.1-.8,5.5,5.5,0,0,0-5.047,2.878,9.06,9.06,0,0,0-1.049,2.934,18.441,18.441,0,0,0-.308,3.376,17.984,17.984,0,0,0,.313,3.339ZM31.042,39.75A7.88,7.88,0,0,1,28.175,38.2a7.163,7.163,0,0,1-1.923-2.658,9.631,9.631,0,0,1-.689-3.818,8.912,8.912,0,0,1,.794-4.015,7.023,7.023,0,0,1,2.05-2.52,8.9,8.9,0,0,1,2.867-1.411,29.017,29.017,0,0,1,3.253-.747q1.639-.278,3.229-.444a17.852,17.852,0,0,0,2.818-.5,4.75,4.75,0,0,0,1.947-.969,2.159,2.159,0,0,0,.663-1.7v-.15a4.451,4.451,0,0,0-.385-2.02,2.97,2.97,0,0,0-1.024-1.162,3.812,3.812,0,0,0-1.492-.553,11.425,11.425,0,0,0-1.823-.14,5.212,5.212,0,0,0-3.381,1,4.6,4.6,0,0,0-1.42,3.315H26.383a9.672,9.672,0,0,1,1.281-4.594,9.031,9.031,0,0,1,2.869-2.928,11.937,11.937,0,0,1,3.92-1.578,20.611,20.611,0,0,1,4.379-.471,27.434,27.434,0,0,1,4.047.306,11.678,11.678,0,0,1,3.741,1.189,7.511,7.511,0,0,1,2.769,2.466,7.3,7.3,0,0,1,1.076,4.18V33.163a32.207,32.207,0,0,0,.206,3.709,7.094,7.094,0,0,0,.708,2.656h-7.37a11.447,11.447,0,0,1-.331-1.356,12.388,12.388,0,0,1-.179-1.411,9.416,9.416,0,0,1-4.1,2.711,15.344,15.344,0,0,1-4.806.775,12.129,12.129,0,0,1-3.542-.5ZM33.2,33.161A2.864,2.864,0,0,0,34.17,34.3a3.939,3.939,0,0,0,1.434.582,8.447,8.447,0,0,0,1.691.165,6.039,6.039,0,0,0,3.33-.774,5.008,5.008,0,0,0,1.745-1.854,6.278,6.278,0,0,0,.691-2.185,16.483,16.483,0,0,0,.128-1.771V25.521a3.175,3.175,0,0,1-1.16.695,11.288,11.288,0,0,1-1.492.416c-.53.109-1.084.2-1.657.276s-1.16.167-1.742.278a12.1,12.1,0,0,0-1.613.442,4.676,4.676,0,0,0-1.384.747,3.486,3.486,0,0,0-.948,1.191,4.1,4.1,0,0,0-.36,1.827,3.947,3.947,0,0,0,.366,1.769ZM7.942,39.75a11.437,11.437,0,0,1-3.92-1.662A9.193,9.193,0,0,1,1.2,35.015,10.221,10.221,0,0,1,0,30.228H6.916A4.58,4.58,0,0,0,7.4,32.416a4.488,4.488,0,0,0,1.255,1.5,5.2,5.2,0,0,0,1.768.858,7.733,7.733,0,0,0,2.075.278,7.172,7.172,0,0,0,1.614-.193,5.226,5.226,0,0,0,1.538-.609,3.6,3.6,0,0,0,1.16-1.107,3.084,3.084,0,0,0,.462-1.743q0-1.771-2.178-2.658a40.868,40.868,0,0,0-6.071-1.771q-1.589-.387-3.1-.913A10.234,10.234,0,0,1,3.237,24.67a6.206,6.206,0,0,1-2.629-5.35,9.19,9.19,0,0,1,.994-4.54,7.686,7.686,0,0,1,2.65-2.8,11.056,11.056,0,0,1,3.689-1.433,21.1,21.1,0,0,1,4.2-.415,19.424,19.424,0,0,1,4.173.43A10.582,10.582,0,0,1,19.93,12.06a8.675,8.675,0,0,1,2.639,2.8,9.937,9.937,0,0,1,1.255,4.4H16.905a3.511,3.511,0,0,0-1.589-3.073,6.831,6.831,0,0,0-3.383-.8,11.58,11.58,0,0,0-1.326.084,4.173,4.173,0,0,0-1.306.358,2.716,2.716,0,0,0-.994.8A2.237,2.237,0,0,0,7.9,18.046a2.226,2.226,0,0,0,.718,1.718,5.429,5.429,0,0,0,1.871,1.075,22.091,22.091,0,0,0,2.639.747q1.492.331,3.023.716a29.284,29.284,0,0,1,3.1.942,9.929,9.929,0,0,1,2.69,1.467,6.962,6.962,0,0,1,1.9,2.269,7.109,7.109,0,0,1,.718,3.351,8.9,8.9,0,0,1-3.8,7.818,10.734,10.734,0,0,1-3.868,1.633,20.945,20.945,0,0,1-4.432.471,20.428,20.428,0,0,1-4.506-.5Zm104.1-.222V23.363a10.713,10.713,0,0,0-1.024-5.287,3.851,3.851,0,0,0-3.638-1.743,4.864,4.864,0,0,0-4.309,1.909,11.308,11.308,0,0,0-1.326,6.283v15H94.469V10.907h6.918v3.987h.152a8.634,8.634,0,0,1,3.587-3.627,9.737,9.737,0,0,1,4.508-1.134,11.539,11.539,0,0,1,4.79.858,7.188,7.188,0,0,1,2.945,2.38,9.609,9.609,0,0,1,1.513,3.709,24.979,24.979,0,0,1,.436,4.836V39.521Zm10.963,0V10.907h7.274V39.526Zm-68.75,0V0h7.276V39.528ZM123.4,7.608l2.39-7.429,6.875,2.575-2.39,7.429Z" transform="translate(894 15)"/>
    <path id="Path_16529" data-name="Path 16529" d="M1.846-1.948a1.013,1.013,0,0,0,.39.841A1.445,1.445,0,0,0,3.158-.8a2.806,2.806,0,0,0,1.258-.3A1.693,1.693,0,0,0,5.441-2.734v-.991a2.105,2.105,0,0,1-.581.239,4.951,4.951,0,0,1-.7.137l-.745.1a2.85,2.85,0,0,0-1,.28A1.092,1.092,0,0,0,1.846-1.948Zm2.98-2.488a.668.668,0,0,0,.567-.355,1.082,1.082,0,0,0,.082-.472,1,1,0,0,0-.448-.913A2.4,2.4,0,0,0,3.746-6.46a1.629,1.629,0,0,0-1.367.52,1.709,1.709,0,0,0-.294.854H.937a2.114,2.114,0,0,1,.878-1.883A3.607,3.607,0,0,1,3.773-7.5a3.985,3.985,0,0,1,2.1.492,1.67,1.67,0,0,1,.8,1.531v4.218A.54.54,0,0,0,6.75-.95a.379.379,0,0,0,.332.116q.082,0,.185-.01t.219-.031V.034a3.427,3.427,0,0,1-.437.1,3.2,3.2,0,0,1-.41.021,1.012,1.012,0,0,1-.923-.451A1.741,1.741,0,0,1,5.5-.971a3.131,3.131,0,0,1-1.08.854A3.341,3.341,0,0,1,2.871.246,2.308,2.308,0,0,1,1.207-.373,2.055,2.055,0,0,1,.561-1.921,1.994,1.994,0,0,1,1.2-3.5a3.025,3.025,0,0,1,1.668-.69Zm6.836-2.885h1.169v1.265a2.794,2.794,0,0,1,.7-.9,1.826,1.826,0,0,1,1.292-.53q.034,0,.116.007l.28.027v1.3a1.838,1.838,0,0,0-.2-.027q-.092-.007-.2-.007a1.756,1.756,0,0,0-1.429.6,2.088,2.088,0,0,0-.5,1.377V0h-1.23Zm7.814-2.044h1.244v2.044H21.89v1H20.721v4.778a.517.517,0,0,0,.26.513,1.1,1.1,0,0,0,.479.075q.089,0,.191,0t.239-.017V0a2.747,2.747,0,0,1-.441.089,4.192,4.192,0,0,1-.5.027,1.336,1.336,0,0,1-1.169-.441,1.959,1.959,0,0,1-.308-1.145V-6.316h-.991v-1h.991ZM35.8-.793a1.7,1.7,0,0,0,1.678-.926,4.615,4.615,0,0,0,.455-2.061A3.67,3.67,0,0,0,37.6-5.448,1.846,1.846,0,0,0,35.809-6.46a1.766,1.766,0,0,0-1.641.861,3.992,3.992,0,0,0-.513,2.078,3.473,3.473,0,0,0,.513,1.948A1.806,1.806,0,0,0,35.8-.793Zm.048-6.74a3.315,3.315,0,0,1,2.393.943,3.684,3.684,0,0,1,.978,2.775,4.762,4.762,0,0,1-.861,2.926A3.116,3.116,0,0,1,35.679.267a3.017,3.017,0,0,1-2.4-1.022A4.037,4.037,0,0,1,32.391-3.5a4.367,4.367,0,0,1,.937-2.939A3.143,3.143,0,0,1,35.843-7.533Zm8.081-.9a2.194,2.194,0,0,1,.267-1.121,1.884,1.884,0,0,1,1.661-.629q.116,0,.239.007t.28.021v1.121q-.191-.014-.277-.017t-.161,0q-.561,0-.67.291a5.744,5.744,0,0,0-.109,1.48h1.217v.971H45.14V0H43.924V-6.316H42.905v-.971h1.019Zm13.659,0a2.194,2.194,0,0,1,.267-1.121,1.884,1.884,0,0,1,1.661-.629q.116,0,.239.007t.28.021v1.121q-.191-.014-.277-.017t-.161,0q-.561,0-.67.291a5.744,5.744,0,0,0-.109,1.48H60.03v.971H58.8V0H57.583V-6.316H56.564v-.971h1.019Zm7.753,1.114v4.86a2.049,2.049,0,0,0,.178.916,1.24,1.24,0,0,0,1.224.656,1.73,1.73,0,0,0,1.75-1.148,4.556,4.556,0,0,0,.253-1.688v-3.6h1.23V0H68.808l.014-1.08a2.482,2.482,0,0,1-.595.7A2.617,2.617,0,0,1,66.518.2,2.2,2.2,0,0,1,64.385-.848a3.115,3.115,0,0,1-.308-1.5V-7.321Zm9.53,0h1.169v1.265a2.794,2.794,0,0,1,.7-.9,1.826,1.826,0,0,1,1.292-.53q.034,0,.116.007l.28.027v1.3a1.838,1.838,0,0,0-.2-.027q-.092-.007-.2-.007a1.756,1.756,0,0,0-1.429.6,2.088,2.088,0,0,0-.5,1.377V0h-1.23Zm7.568,0H83.6v1.039a3.279,3.279,0,0,1,1.1-.923,2.935,2.935,0,0,1,1.292-.28A2.13,2.13,0,0,1,88.1-6.4a3.86,3.86,0,0,1,.3,1.7V0H87.15V-4.614a2.5,2.5,0,0,0-.2-1.08,1.2,1.2,0,0,0-1.189-.684,2.422,2.422,0,0,0-.718.089,1.848,1.848,0,0,0-.889.6,1.811,1.811,0,0,0-.4.749,5.039,5.039,0,0,0-.092,1.1V0h-1.23Zm10.726.034H94.41V0H93.159Zm0-2.755H94.41v1.395H93.159Zm6.3.677H100.7v2.044h1.169v1H100.7v4.778a.517.517,0,0,0,.26.513,1.1,1.1,0,0,0,.479.075q.089,0,.191,0t.239-.017V0a2.747,2.747,0,0,1-.441.089,4.192,4.192,0,0,1-.5.027,1.336,1.336,0,0,1-1.169-.441,1.959,1.959,0,0,1-.308-1.145V-6.316h-.991v-1h.991Zm7.814,2.044v4.86a2.049,2.049,0,0,0,.178.916,1.24,1.24,0,0,0,1.224.656,1.73,1.73,0,0,0,1.75-1.148,4.556,4.556,0,0,0,.253-1.688v-3.6h1.23V0h-1.162l.014-1.08a2.482,2.482,0,0,1-.595.7A2.617,2.617,0,0,1,108.452.2,2.2,2.2,0,0,1,106.32-.848a3.115,3.115,0,0,1-.308-1.5V-7.321Zm9.53,0h1.169v1.265a2.794,2.794,0,0,1,.7-.9,1.826,1.826,0,0,1,1.292-.53q.034,0,.116.007l.28.027v1.3a1.838,1.838,0,0,0-.2-.027q-.092-.007-.2-.007a1.756,1.756,0,0,0-1.429.6,2.088,2.088,0,0,0-.5,1.377V0H116.8Zm10.617-.164a3.34,3.34,0,0,1,1.511.366,2.786,2.786,0,0,1,1.114.947,3.266,3.266,0,0,1,.492,1.292,8.453,8.453,0,0,1,.109,1.613h-5.366A3.131,3.131,0,0,0,125.8-1.48a1.763,1.763,0,0,0,1.524.673,1.971,1.971,0,0,0,1.538-.636,2.143,2.143,0,0,0,.465-.854h1.21a2.549,2.549,0,0,1-.318.9,3.2,3.2,0,0,1-.6.81A2.867,2.867,0,0,1,128.23.15a4.216,4.216,0,0,1-1,.109,3.083,3.083,0,0,1-2.317-.995,3.87,3.87,0,0,1-.95-2.786,4.208,4.208,0,0,1,.957-2.864A3.157,3.157,0,0,1,127.416-7.485Zm1.962,3.24a3.188,3.188,0,0,0-.349-1.278,1.787,1.787,0,0,0-1.688-.889,1.872,1.872,0,0,0-1.422.612,2.311,2.311,0,0,0-.608,1.555Z" transform="translate(894 73.008)" opacity="0.8"/>
  </g>
</svg>
